{"buffers":[{"uri":"r2bot v21.bin","byteLength":279576}],"asset":{"version":"2.0","generator":"gltfpack 0.16"},"bufferViews":[{"buffer":0,"byteOffset":0,"byteLength":116112,"byteStride":12,"target":34962},{"buffer":0,"byteOffset":116112,"byteLength":116112,"byteStride":12,"target":34962},{"buffer":0,"byteOffset":232224,"byteLength":47352,"target":34963}],"accessors":[{"bufferView":0,"byteOffset":0,"componentType":5126,"count":320,"type":"VEC3","min":[-5.9000001,-15.3000107,-3.39789987],"max":[5.89163017,-9.70000076,8.39789963]},{"bufferView":1,"byteOffset":0,"componentType":5126,"count":320,"type":"VEC3"},{"bufferView":2,"byteOffset":0,"componentType":5123,"count":960,"type":"SCALAR"},{"bufferView":0,"byteOffset":3840,"componentType":5126,"count":320,"type":"VEC3","min":[-5.9000001,9.70000076,-3.39789987],"max":[5.89163017,15.3000107,8.39789963]},{"bufferView":1,"byteOffset":3840,"componentType":5126,"count":320,"type":"VEC3"},{"bufferView":2,"byteOffset":1920,"componentType":5123,"count":960,"type":"SCALAR"},{"bufferView":0,"byteOffset":7680,"componentType":5126,"count":354,"type":"VEC3","min":[-3.5,-3.49485993,26.5],"max":[3.5,3.49485993,31]},{"bufferView":1,"byteOffset":7680,"componentType":5126,"count":354,"type":"VEC3"},{"bufferView":2,"byteOffset":3840,"componentType":5123,"count":1050,"type":"SCALAR"},{"bufferView":0,"byteOffset":11928,"componentType":5126,"count":1512,"type":"VEC3","min":[-28,-28,31],"max":[28,28,38]},{"bufferView":1,"byteOffset":11928,"componentType":5126,"count":1512,"type":"VEC3"},{"bufferView":2,"byteOffset":5940,"componentType":5123,"count":3564,"type":"SCALAR"},{"bufferView":0,"byteOffset":30072,"componentType":5126,"count":2332,"type":"VEC3","min":[-28,-28,-0.5],"max":[28,28,35]},{"bufferView":1,"byteOffset":30072,"componentType":5126,"count":2332,"type":"VEC3"},{"bufferView":2,"byteOffset":13068,"componentType":5123,"count":5304,"type":"SCALAR"},{"bufferView":0,"byteOffset":58056,"componentType":5126,"count":320,"type":"VEC3","min":[-5.9000001,-15.3000002,-3.3979001],"max":[5.89163017,-9.69999027,8.39789963]},{"bufferView":1,"byteOffset":58056,"componentType":5126,"count":320,"type":"VEC3"},{"bufferView":2,"byteOffset":23676,"componentType":5123,"count":960,"type":"SCALAR"},{"bufferView":0,"byteOffset":61896,"componentType":5126,"count":320,"type":"VEC3","min":[-5.9000001,9.69999027,-3.3979001],"max":[5.89163017,15.3000002,8.39789963]},{"bufferView":1,"byteOffset":61896,"componentType":5126,"count":320,"type":"VEC3"},{"bufferView":2,"byteOffset":25596,"componentType":5123,"count":960,"type":"SCALAR"},{"bufferView":0,"byteOffset":65736,"componentType":5126,"count":354,"type":"VEC3","min":[-3.5,-3.49485993,26.5],"max":[3.5,3.49485993,31]},{"bufferView":1,"byteOffset":65736,"componentType":5126,"count":354,"type":"VEC3"},{"bufferView":2,"byteOffset":27516,"componentType":5123,"count":1050,"type":"SCALAR"},{"bufferView":0,"byteOffset":69984,"componentType":5126,"count":1512,"type":"VEC3","min":[-28,-28,31],"max":[28,28,38]},{"bufferView":1,"byteOffset":69984,"componentType":5126,"count":1512,"type":"VEC3"},{"bufferView":2,"byteOffset":29616,"componentType":5123,"count":3564,"type":"SCALAR"},{"bufferView":0,"byteOffset":88128,"componentType":5126,"count":2332,"type":"VEC3","min":[-28,-28,-0.5],"max":[28,28,35]},{"bufferView":1,"byteOffset":88128,"componentType":5126,"count":2332,"type":"VEC3"},{"bufferView":2,"byteOffset":36744,"componentType":5123,"count":5304,"type":"SCALAR"}],"materials":[{"pbrMetallicRoughness":{"baseColorFactor":[0.627451003,0.627451003,0.627451003,1],"metallicFactor":0},"doubleSided":true}],"meshes":[{"primitives":[{"attributes":{"POSITION":0,"NORMAL":1},"mode":4,"indices":2,"material":0}]},{"primitives":[{"attributes":{"POSITION":3,"NORMAL":4},"mode":4,"indices":5,"material":0}]},{"primitives":[{"attributes":{"POSITION":6,"NORMAL":7},"mode":4,"indices":8,"material":0}]},{"primitives":[{"attributes":{"POSITION":9,"NORMAL":10},"mode":4,"indices":11,"material":0}]},{"primitives":[{"attributes":{"POSITION":12,"NORMAL":13},"mode":4,"indices":14,"material":0}]},{"primitives":[{"attributes":{"POSITION":15,"NORMAL":16},"mode":4,"indices":17,"material":0}]},{"primitives":[{"attributes":{"POSITION":18,"NORMAL":19},"mode":4,"indices":20,"material":0}]},{"primitives":[{"attributes":{"POSITION":21,"NORMAL":22},"mode":4,"indices":23,"material":0}]},{"primitives":[{"attributes":{"POSITION":24,"NORMAL":25},"mode":4,"indices":26,"material":0}]},{"primitives":[{"attributes":{"POSITION":27,"NORMAL":28},"mode":4,"indices":29,"material":0}]}],"nodes":[{"mesh":0},{"mesh":1},{"mesh":2},{"mesh":3},{"mesh":4},{"mesh":5},{"mesh":6},{"mesh":7},{"mesh":8},{"mesh":9},{"name":"old_component (1)","children":[0]},{"name":"old_component (2)","children":[1]},{"name":"old_component (3)","children":[2]},{"name":"old_component","children":[3]},{"name":"old_component (4)","children":[4]},{"name":"Wheel1_1","children":[5]},{"name":"Wheel2_1","children":[6]},{"name":"leider_1","children":[7]},{"name":"base_link","children":[8]},{"name":"a1_1","children":[9]}],"scenes":[{"nodes":[10,11,12,13,14,15,16,17,18,19]}]}